<svg width="52" height="70" viewBox="0 0 52 70" fill="none" xmlns="http://www.w3.org/2000/svg">
<path d="M37.3333 34.6667V38.6667H13.3333V34.6667C13.3333 34.6667 13.3333 26.6667 25.3333 26.6667C37.3333 26.6667 37.3333 34.6667 37.3333 34.6667ZM31.3333 16.6667C31.3333 15.48 30.9814 14.3199 30.3222 13.3333C29.6629 12.3466 28.7258 11.5775 27.6294 11.1234C26.5331 10.6693 25.3267 10.5505 24.1628 10.782C22.9989 11.0135 21.9298 11.5849 21.0907 12.424C20.2516 13.2631 19.6801 14.3322 19.4486 15.4961C19.2171 16.66 19.3359 17.8664 19.7901 18.9628C20.2442 20.0591 21.0132 20.9962 21.9999 21.6555C22.9866 22.3148 24.1467 22.6667 25.3333 22.6667C26.9246 22.6667 28.4508 22.0345 29.576 20.9093C30.7012 19.7841 31.3333 18.258 31.3333 16.6667ZM37.7333 26.7867C38.8266 27.7953 39.708 29.0116 40.3261 30.3645C40.9442 31.7175 41.2866 33.18 41.3333 34.6667V38.6667H47.3333V34.6667C47.3333 34.6667 47.3333 27.7667 37.7333 26.7867ZM35.3333 10.6667C34.7291 10.667 34.1285 10.7615 33.5533 10.9467C34.7234 12.6246 35.3508 14.621 35.3508 16.6667C35.3508 18.7123 34.7234 20.7087 33.5533 22.3867C34.1285 22.5719 34.7291 22.6663 35.3333 22.6667C36.9246 22.6667 38.4508 22.0345 39.576 20.9093C40.7012 19.7841 41.3333 18.258 41.3333 16.6667C41.3333 15.0754 40.7012 13.5493 39.576 12.424C38.4508 11.2988 36.9246 10.6667 35.3333 10.6667ZM14.0133 18.5067L16.3333 21.3267L6.83334 30.8267L1.33334 24.8267L3.65334 22.5067L6.83334 25.6667L14.0133 18.5067Z" fill="#114483"/>
<path d="M14.6016 60.0312H9.83594L8.76562 63H7.21875L11.5625 51.625H12.875L17.2266 63H15.6875L14.6016 60.0312ZM10.2891 58.7969H14.1562L12.2188 53.4766L10.2891 58.7969ZM21.9219 61.9766C22.4375 61.9766 22.888 61.8203 23.2734 61.5078C23.6589 61.1953 23.8724 60.8047 23.9141 60.3359H25.2812C25.2552 60.8203 25.0885 61.2812 24.7812 61.7188C24.474 62.1562 24.0625 62.5052 23.5469 62.7656C23.0365 63.026 22.4948 63.1562 21.9219 63.1562C20.7708 63.1562 19.8542 62.7734 19.1719 62.0078C18.4948 61.237 18.1562 60.1849 18.1562 58.8516V58.6094C18.1562 57.7865 18.3073 57.0547 18.6094 56.4141C18.9115 55.7734 19.3438 55.276 19.9062 54.9219C20.474 54.5677 21.1432 54.3906 21.9141 54.3906C22.862 54.3906 23.6484 54.6745 24.2734 55.2422C24.9036 55.8099 25.2396 56.5469 25.2812 57.4531H23.9141C23.8724 56.9062 23.6641 56.4583 23.2891 56.1094C22.9193 55.7552 22.4609 55.5781 21.9141 55.5781C21.1797 55.5781 20.6094 55.8438 20.2031 56.375C19.8021 56.901 19.6016 57.6641 19.6016 58.6641V58.9375C19.6016 59.9115 19.8021 60.6615 20.2031 61.1875C20.6042 61.7135 21.1771 61.9766 21.9219 61.9766ZM28.8672 52.5V54.5469H30.4453V55.6641H28.8672V60.9062C28.8672 61.2448 28.9375 61.5 29.0781 61.6719C29.2188 61.8385 29.4583 61.9219 29.7969 61.9219C29.9635 61.9219 30.1927 61.8906 30.4844 61.8281V63C30.1042 63.1042 29.7344 63.1562 29.375 63.1562C28.7292 63.1562 28.2422 62.9609 27.9141 62.5703C27.5859 62.1797 27.4219 61.625 27.4219 60.9062V55.6641H25.8828V54.5469H27.4219V52.5H28.8672ZM33.7109 63H32.2656V54.5469H33.7109V63ZM32.1484 52.3047C32.1484 52.0703 32.2188 51.8724 32.3594 51.7109C32.5052 51.5495 32.7188 51.4688 33 51.4688C33.2812 51.4688 33.4948 51.5495 33.6406 51.7109C33.7865 51.8724 33.8594 52.0703 33.8594 52.3047C33.8594 52.5391 33.7865 52.7344 33.6406 52.8906C33.4948 53.0469 33.2812 53.125 33 53.125C32.7188 53.125 32.5052 53.0469 32.3594 52.8906C32.2188 52.7344 32.1484 52.5391 32.1484 52.3047ZM38.8203 61.0391L40.9141 54.5469H42.3906L39.3594 63H38.2578L35.1953 54.5469H36.6719L38.8203 61.0391ZM47.1797 63.1562C46.0339 63.1562 45.1016 62.7812 44.3828 62.0312C43.6641 61.276 43.3047 60.2682 43.3047 59.0078V58.7422C43.3047 57.9036 43.4635 57.1562 43.7812 56.5C44.1042 55.8385 44.5521 55.3229 45.125 54.9531C45.7031 54.5781 46.3281 54.3906 47 54.3906C48.099 54.3906 48.9531 54.7526 49.5625 55.4766C50.1719 56.2005 50.4766 57.237 50.4766 58.5859V59.1875H44.75C44.7708 60.0208 45.013 60.6953 45.4766 61.2109C45.9453 61.7214 46.5391 61.9766 47.2578 61.9766C47.7682 61.9766 48.2005 61.8724 48.5547 61.6641C48.9089 61.4557 49.2188 61.1797 49.4844 60.8359L50.3672 61.5234C49.6589 62.612 48.5964 63.1562 47.1797 63.1562ZM47 55.5781C46.4167 55.5781 45.9271 55.7917 45.5312 56.2188C45.1354 56.6406 44.8906 57.2344 44.7969 58H49.0312V57.8906C48.9896 57.1562 48.7917 56.5885 48.4375 56.1875C48.0833 55.7812 47.6042 55.5781 47 55.5781Z" fill="#114483"/>
</svg>
