<svg width="57" height="70" viewBox="0 0 57 70" fill="none" xmlns="http://www.w3.org/2000/svg">
<path d="M3.92969 63H2.42969V51.625H3.92969V63ZM7.82031 54.5469L7.86719 55.6094C8.51302 54.7969 9.35677 54.3906 10.3984 54.3906C12.1849 54.3906 13.0859 55.3984 13.1016 57.4141V63H11.6562V57.4062C11.651 56.7969 11.5104 56.3464 11.2344 56.0547C10.9635 55.763 10.5391 55.6172 9.96094 55.6172C9.49219 55.6172 9.08073 55.7422 8.72656 55.9922C8.3724 56.2422 8.09635 56.5703 7.89844 56.9766V63H6.45312V54.5469H7.82031ZM20.5 63C20.4167 62.8333 20.349 62.5365 20.2969 62.1094C19.625 62.8073 18.8229 63.1562 17.8906 63.1562C17.0573 63.1562 16.3724 62.9219 15.8359 62.4531C15.3047 61.9792 15.0391 61.3802 15.0391 60.6562C15.0391 59.776 15.3724 59.0938 16.0391 58.6094C16.7109 58.1198 17.6536 57.875 18.8672 57.875H20.2734V57.2109C20.2734 56.7057 20.1224 56.3047 19.8203 56.0078C19.5182 55.7057 19.0729 55.5547 18.4844 55.5547C17.9688 55.5547 17.5365 55.6849 17.1875 55.9453C16.8385 56.2057 16.6641 56.5208 16.6641 56.8906H15.2109C15.2109 56.4688 15.3594 56.0625 15.6562 55.6719C15.9583 55.276 16.3646 54.9635 16.875 54.7344C17.3906 54.5052 17.9557 54.3906 18.5703 54.3906C19.5443 54.3906 20.3073 54.6354 20.8594 55.125C21.4115 55.6094 21.6979 56.2786 21.7188 57.1328V61.0234C21.7188 61.7995 21.8177 62.4167 22.0156 62.875V63H20.5ZM18.1016 61.8984C18.5547 61.8984 18.9844 61.7812 19.3906 61.5469C19.7969 61.3125 20.0911 61.0078 20.2734 60.6328V58.8984H19.1406C17.3698 58.8984 16.4844 59.4167 16.4844 60.4531C16.4844 60.9062 16.6354 61.2604 16.9375 61.5156C17.2396 61.7708 17.6276 61.8984 18.1016 61.8984ZM27.375 61.9766C27.8906 61.9766 28.3411 61.8203 28.7266 61.5078C29.112 61.1953 29.3255 60.8047 29.3672 60.3359H30.7344C30.7083 60.8203 30.5417 61.2812 30.2344 61.7188C29.9271 62.1562 29.5156 62.5052 29 62.7656C28.4896 63.026 27.9479 63.1562 27.375 63.1562C26.224 63.1562 25.3073 62.7734 24.625 62.0078C23.9479 61.237 23.6094 60.1849 23.6094 58.8516V58.6094C23.6094 57.7865 23.7604 57.0547 24.0625 56.4141C24.3646 55.7734 24.7969 55.276 25.3594 54.9219C25.9271 54.5677 26.5964 54.3906 27.3672 54.3906C28.3151 54.3906 29.1016 54.6745 29.7266 55.2422C30.3568 55.8099 30.6927 56.5469 30.7344 57.4531H29.3672C29.3255 56.9062 29.1172 56.4583 28.7422 56.1094C28.3724 55.7552 27.9141 55.5781 27.3672 55.5781C26.6328 55.5781 26.0625 55.8438 25.6562 56.375C25.2552 56.901 25.0547 57.6641 25.0547 58.6641V58.9375C25.0547 59.9115 25.2552 60.6615 25.6562 61.1875C26.0573 61.7135 26.6302 61.9766 27.375 61.9766ZM34.3203 52.5V54.5469H35.8984V55.6641H34.3203V60.9062C34.3203 61.2448 34.3906 61.5 34.5312 61.6719C34.6719 61.8385 34.9115 61.9219 35.25 61.9219C35.4167 61.9219 35.6458 61.8906 35.9375 61.8281V63C35.5573 63.1042 35.1875 63.1562 34.8281 63.1562C34.1823 63.1562 33.6953 62.9609 33.3672 62.5703C33.0391 62.1797 32.875 61.625 32.875 60.9062V55.6641H31.3359V54.5469H32.875V52.5H34.3203ZM39.1641 63H37.7188V54.5469H39.1641V63ZM37.6016 52.3047C37.6016 52.0703 37.6719 51.8724 37.8125 51.7109C37.9583 51.5495 38.1719 51.4688 38.4531 51.4688C38.7344 51.4688 38.9479 51.5495 39.0938 51.7109C39.2396 51.8724 39.3125 52.0703 39.3125 52.3047C39.3125 52.5391 39.2396 52.7344 39.0938 52.8906C38.9479 53.0469 38.7344 53.125 38.4531 53.125C38.1719 53.125 37.9583 53.0469 37.8125 52.8906C37.6719 52.7344 37.6016 52.5391 37.6016 52.3047ZM44.2734 61.0391L46.3672 54.5469H47.8438L44.8125 63H43.7109L40.6484 54.5469H42.125L44.2734 61.0391ZM52.6328 63.1562C51.487 63.1562 50.5547 62.7812 49.8359 62.0312C49.1172 61.276 48.7578 60.2682 48.7578 59.0078V58.7422C48.7578 57.9036 48.9167 57.1562 49.2344 56.5C49.5573 55.8385 50.0052 55.3229 50.5781 54.9531C51.1562 54.5781 51.7812 54.3906 52.4531 54.3906C53.5521 54.3906 54.4062 54.7526 55.0156 55.4766C55.625 56.2005 55.9297 57.237 55.9297 58.5859V59.1875H50.2031C50.224 60.0208 50.4661 60.6953 50.9297 61.2109C51.3984 61.7214 51.9922 61.9766 52.7109 61.9766C53.2214 61.9766 53.6536 61.8724 54.0078 61.6641C54.362 61.4557 54.6719 61.1797 54.9375 60.8359L55.8203 61.5234C55.112 62.612 54.0495 63.1562 52.6328 63.1562ZM52.4531 55.5781C51.8698 55.5781 51.3802 55.7917 50.9844 56.2188C50.5885 56.6406 50.3438 57.2344 50.25 58H54.4844V57.8906C54.4427 57.1562 54.2448 56.5885 53.8906 56.1875C53.5365 55.7812 53.0573 55.5781 52.4531 55.5781Z" fill="#9D9D9D"/>
<path d="M48 34V38H42V34C42 30.9 40.6 28.12 38.36 26.12C48 27.1 48 34 48 34ZM36 10C39.32 10 42 12.68 42 16C42.0011 16.9423 41.78 17.8717 41.3545 18.7125C40.9291 19.5533 40.3113 20.282 39.5514 20.8393C38.7915 21.3965 37.9109 21.7667 36.9811 21.9197C36.0512 22.0728 35.0984 22.0043 34.2 21.72C35.34 20.1 36 18.14 36 16C36 13.88 35.34 11.9 34.2 10.28C34.76 10.1 35.38 10 36 10ZM26 10C29.32 10 32 12.68 32 16C32 19.32 29.32 22 26 22C22.68 22 20 19.32 20 16C20 12.68 22.68 10 26 10ZM38 34V38H14V34C14 29.58 19.38 26 26 26C32.62 26 38 29.58 38 34ZM0.927979 26.24L5.17998 22L0.927979 17.76L3.75998 14.92L7.99998 19.18L12.24 14.92L15.08 17.76L10.82 22L15.08 26.24L12.24 29.08L7.99998 24.82L3.75998 29.08L0.927979 26.24Z" fill="#9D9D9D"/>
</svg>
