<svg width="21" height="24" viewBox="0 0 21 24" fill="none" xmlns="http://www.w3.org/2000/svg">
<path d="M20.9996 18C20.9949 18.7687 20.3902 19.5 19.4949 19.5H1.50329C0.608909 19.5 0.00375193 18.7687 -0.000466827 18C-0.0025148 17.6214 0.142129 17.2567 0.403127 16.9823C1.30875 16.0092 3.00329 14.5448 3.00329 9.75C3.00329 6.10781 5.55704 3.19219 9.00048 2.47688V1.5C9.00048 1.10218 9.15852 0.720644 9.43982 0.43934C9.72113 0.158035 10.1027 0 10.5005 0C10.8983 0 11.2798 0.158035 11.5611 0.43934C11.8424 0.720644 12.0005 1.10218 12.0005 1.5V2.47688C15.4411 3.19219 17.9949 6.10781 17.9949 9.75C17.9949 14.5453 19.6894 16.0092 20.595 16.9823C20.8563 17.2566 21.0013 17.6213 20.9996 18Z" fill="#FFCD1C"/>
<path d="M7.5 20.9116H13.5C13.5 21.7073 13.1839 22.4703 12.6213 23.0329C12.0587 23.5956 11.2957 23.9116 10.5 23.9116C9.70435 23.9116 8.94129 23.5956 8.37868 23.0329C7.81607 22.4703 7.5 21.7073 7.5 20.9116Z" fill="#FFCD1C"/>
</svg>
