<svg width="21" height="25" viewBox="0 0 21 25" fill="none" xmlns="http://www.w3.org/2000/svg">
<path d="M18.75 3.33331H16.5V0.895813C16.5 0.586438 16.2469 0.333313 15.9375 0.333313H15.5625C15.2531 0.333313 15 0.586438 15 0.895813V3.33331H6V0.895813C6 0.586438 5.74687 0.333313 5.4375 0.333313H5.0625C4.75313 0.333313 4.5 0.586438 4.5 0.895813V3.33331H2.25C1.00781 3.33331 0 4.34113 0 5.58331V22.0833C0 23.3255 1.00781 24.3333 2.25 24.3333H18.75C19.9922 24.3333 21 23.3255 21 22.0833V5.58331C21 4.34113 19.9922 3.33331 18.75 3.33331ZM2.25 4.83331H18.75C19.1625 4.83331 19.5 5.17081 19.5 5.58331V7.83331H1.5V5.58331C1.5 5.17081 1.8375 4.83331 2.25 4.83331ZM18.75 22.8333H2.25C1.8375 22.8333 1.5 22.4958 1.5 22.0833V9.33331H19.5V22.0833C19.5 22.4958 19.1625 22.8333 18.75 22.8333ZM6.9375 15.3333H5.0625C4.75313 15.3333 4.5 15.0802 4.5 14.7708V12.8958C4.5 12.5864 4.75313 12.3333 5.0625 12.3333H6.9375C7.24687 12.3333 7.5 12.5864 7.5 12.8958V14.7708C7.5 15.0802 7.24687 15.3333 6.9375 15.3333ZM11.4375 15.3333H9.5625C9.25313 15.3333 9 15.0802 9 14.7708V12.8958C9 12.5864 9.25313 12.3333 9.5625 12.3333H11.4375C11.7469 12.3333 12 12.5864 12 12.8958V14.7708C12 15.0802 11.7469 15.3333 11.4375 15.3333ZM15.9375 15.3333H14.0625C13.7531 15.3333 13.5 15.0802 13.5 14.7708V12.8958C13.5 12.5864 13.7531 12.3333 14.0625 12.3333H15.9375C16.2469 12.3333 16.5 12.5864 16.5 12.8958V14.7708C16.5 15.0802 16.2469 15.3333 15.9375 15.3333ZM11.4375 19.8333H9.5625C9.25313 19.8333 9 19.5802 9 19.2708V17.3958C9 17.0864 9.25313 16.8333 9.5625 16.8333H11.4375C11.7469 16.8333 12 17.0864 12 17.3958V19.2708C12 19.5802 11.7469 19.8333 11.4375 19.8333ZM6.9375 19.8333H5.0625C4.75313 19.8333 4.5 19.5802 4.5 19.2708V17.3958C4.5 17.0864 4.75313 16.8333 5.0625 16.8333H6.9375C7.24687 16.8333 7.5 17.0864 7.5 17.3958V19.2708C7.5 19.5802 7.24687 19.8333 6.9375 19.8333ZM15.9375 19.8333H14.0625C13.7531 19.8333 13.5 19.5802 13.5 19.2708V17.3958C13.5 17.0864 13.7531 16.8333 14.0625 16.8333H15.9375C16.2469 16.8333 16.5 17.0864 16.5 17.3958V19.2708C16.5 19.5802 16.2469 19.8333 15.9375 19.8333Z" fill="white"/>
</svg>
