<svg width="24" height="19" viewBox="0 0 24 19" fill="none" xmlns="http://www.w3.org/2000/svg">
<path d="M21.75 0.333313H2.25C1.00781 0.333313 0 1.34113 0 2.58331V16.0833C0 17.3255 1.00781 18.3333 2.25 18.3333H21.75C22.9922 18.3333 24 17.3255 24 16.0833V2.58331C24 1.34113 22.9922 0.333313 21.75 0.333313ZM2.25 1.83331H21.75C22.1625 1.83331 22.5 2.17081 22.5 2.58331V4.52394C21.4734 5.39113 20.0063 6.58644 15.4406 10.2099C14.6484 10.838 13.0875 12.3521 12 12.3333C10.9125 12.3521 9.34688 10.838 8.55938 10.2099C3.99375 6.58644 2.52656 5.39113 1.5 4.52394V2.58331C1.5 2.17081 1.8375 1.83331 2.25 1.83331ZM21.75 16.8333H2.25C1.8375 16.8333 1.5 16.4958 1.5 16.0833V6.47394C2.56875 7.3505 4.25625 8.70519 7.62656 11.3818C8.5875 12.1505 10.2844 13.8427 12 13.8333C13.7063 13.8474 15.3891 12.1693 16.3734 11.3818C19.7437 8.70519 21.4312 7.3505 22.5 6.47394V16.0833C22.5 16.4958 22.1625 16.8333 21.75 16.8333Z" fill="white"/>
</svg>
