<svg width="18" height="25" viewBox="0 0 18 25" fill="none" xmlns="http://www.w3.org/2000/svg">
<path d="M9 4.83331C6.51868 4.83331 4.5 6.85199 4.5 9.33332C4.5 11.8146 6.51868 13.8333 9 13.8333C11.4813 13.8333 13.5 11.8146 13.5 9.33332C13.5 6.85199 11.4813 4.83331 9 4.83331ZM9 12.3333C7.34579 12.3333 6 10.9875 6 9.33332C6 7.6791 7.34579 6.33332 9 6.33332C10.6542 6.33332 12 7.6791 12 9.33332C12 10.9875 10.6542 12.3333 9 12.3333ZM9 0.333313C4.02942 0.333313 0 4.36274 0 9.33332C0 12.9621 1.26422 13.9754 8.07507 23.8491C8.52197 24.4947 9.47799 24.4948 9.92499 23.8491C16.7358 13.9754 18 12.9621 18 9.33332C18 4.36274 13.9706 0.333313 9 0.333313ZM9 22.5488C2.47055 13.1062 1.5 12.3565 1.5 9.33332C1.5 7.32997 2.28014 5.44658 3.69671 4.03002C5.11327 2.61345 6.99666 1.83331 9 1.83331C11.0034 1.83331 12.8867 2.61345 14.3033 4.03002C15.7199 5.44658 16.5 7.32997 16.5 9.33332C16.5 12.3563 15.5301 13.1054 9 22.5488Z" fill="white"/>
</svg>
