<svg width="24" height="24" viewBox="0 0 24 24" fill="none" xmlns="http://www.w3.org/2000/svg">
<path d="M17.25 16.882V18.3291C20.1689 18.7237 22.125 19.4353 22.125 20.2505C22.125 21.4931 17.5917 22.5005 12 22.5005C6.40828 22.5005 1.875 21.4927 1.875 20.25C1.875 19.4353 3.83109 18.7238 6.75 18.3286V16.8816C2.75719 17.4909 0 18.7683 0 20.25C0 22.3209 5.37281 24 12 24C18.6272 24 24 22.3209 24 20.25C24 18.7683 21.2428 17.4909 17.25 16.882ZM8.25 15V18.75C8.25 19.9908 9.25922 21 10.5 21H13.5C14.7408 21 15.75 19.9908 15.75 18.75V15C16.9908 15 18 13.9908 18 12.75V9.75C18 8.13141 16.9636 6.76172 15.5241 6.23766C15.8972 5.6175 16.125 4.90031 16.125 4.125C16.125 1.85063 14.2744 0 12 0C9.72563 0 7.875 1.85063 7.875 4.125C7.875 4.90031 8.10281 5.6175 8.47594 6.23766C7.03641 6.76172 6 8.13141 6 9.75V12.75C6 13.9908 7.00922 15 8.25 15ZM12 1.5C13.4498 1.5 14.625 2.67516 14.625 4.125C14.625 5.57484 13.4498 6.75 12 6.75C10.5502 6.75 9.375 5.57484 9.375 4.125C9.375 2.67516 10.5502 1.5 12 1.5ZM7.5 9.75C7.5 8.5425 8.45813 7.56188 9.65297 7.50984C10.3205 7.97391 11.1272 8.25 12 8.25C12.8728 8.25 13.6795 7.97391 14.347 7.50984C15.5419 7.56188 16.5 8.5425 16.5 9.75V12.75C16.5 13.1639 16.163 13.5 15.75 13.5H14.25V18.75C14.25 19.1639 13.913 19.5 13.5 19.5H10.5C10.087 19.5 9.75 19.1639 9.75 18.75V13.5H8.25C7.83703 13.5 7.5 13.1639 7.5 12.75V9.75Z" fill="#FFCD1C"/>
</svg>
