<svg width="18" height="25" viewBox="0 0 18 25" fill="none" xmlns="http://www.w3.org/2000/svg">
<path d="M13.125 11.5833H7.875C7.66875 11.5833 7.5 11.7521 7.5 11.9583V12.7083C7.5 12.9146 7.66875 13.0833 7.875 13.0833H13.125C13.3313 13.0833 13.5 12.9146 13.5 12.7083V11.9583C13.5 11.7521 13.3313 11.5833 13.125 11.5833ZM13.125 16.0833H7.875C7.66875 16.0833 7.5 16.2521 7.5 16.4583V17.2083C7.5 17.4146 7.66875 17.5833 7.875 17.5833H13.125C13.3313 17.5833 13.5 17.4146 13.5 17.2083V16.4583C13.5 16.2521 13.3313 16.0833 13.125 16.0833ZM5.25 11.2083C4.62656 11.2083 4.125 11.7099 4.125 12.3333C4.125 12.9568 4.62656 13.4583 5.25 13.4583C5.87344 13.4583 6.375 12.9568 6.375 12.3333C6.375 11.7099 5.87344 11.2083 5.25 11.2083ZM5.25 15.7083C4.62656 15.7083 4.125 16.2099 4.125 16.8333C4.125 17.4568 4.62656 17.9583 5.25 17.9583C5.87344 17.9583 6.375 17.4568 6.375 16.8333C6.375 16.2099 5.87344 15.7083 5.25 15.7083ZM15.75 3.33331H11.5969C11.6156 3.21144 11.625 3.08488 11.625 2.95831C11.625 1.50988 10.4484 0.333313 9 0.333313C7.55156 0.333313 6.375 1.50988 6.375 2.95831C6.375 3.08488 6.38438 3.21144 6.40313 3.33331H2.25C1.00781 3.33331 0 4.34113 0 5.58331V22.0833C0 23.3255 1.00781 24.3333 2.25 24.3333H15.75C16.9922 24.3333 18 23.3255 18 22.0833V5.58331C18 4.34113 16.9922 3.33331 15.75 3.33331ZM9 1.83331C9.62344 1.83331 10.125 2.33488 10.125 2.95831C10.125 3.58175 9.62344 4.08331 9 4.08331C8.37656 4.08331 7.875 3.58175 7.875 2.95831C7.875 2.33488 8.37656 1.83331 9 1.83331ZM16.5 22.0833C16.5 22.4958 16.1625 22.8333 15.75 22.8333H2.25C1.8375 22.8333 1.5 22.4958 1.5 22.0833V5.58331C1.5 5.17081 1.8375 4.83331 2.25 4.83331H4.5V5.77081C4.5 6.08019 4.75313 6.33331 5.0625 6.33331H12.9375C13.2469 6.33331 13.5 6.08019 13.5 5.77081V4.83331H15.75C16.1625 4.83331 16.5 5.17081 16.5 5.58331V22.0833Z" fill="white"/>
</svg>
