<svg width="24" height="22" viewBox="0 0 24 22" fill="none" xmlns="http://www.w3.org/2000/svg">
<path d="M3.33333 15H0.666667C0.298333 15 0 15.2983 0 15.6666V21C0 21.3683 0.298333 21.6666 0.666667 21.6666H3.33333C3.70167 21.6666 4 21.3683 4 21V15.6666C4 15.2983 3.70167 15 3.33333 15ZM2.66667 20.3333H1.33333V16.3333H2.66667V20.3333ZM23.3333 8.33331H20.6667C20.2983 8.33331 20 8.63165 20 8.99998V21C20 21.3683 20.2983 21.6666 20.6667 21.6666H23.3333C23.7017 21.6666 24 21.3683 24 21V8.99998C24 8.63165 23.7017 8.33331 23.3333 8.33331ZM22.6667 20.3333H21.3333V9.66665H22.6667V20.3333ZM20.9487 4.02831C21.255 4.21831 21.6129 4.33331 22 4.33331C23.1046 4.33331 24 3.4379 24 2.33331C24 1.22873 23.1046 0.333313 22 0.333313C20.8954 0.333313 20 1.22873 20 2.33331C20 2.5629 20.0467 2.77956 20.1179 2.98498L16.3846 5.97165C16.0783 5.78123 15.7204 5.66623 15.3333 5.66623C14.9463 5.66623 14.5883 5.78123 14.2821 5.97165L10.5487 2.98498C10.62 2.77998 10.6667 2.5629 10.6667 2.33331C10.6667 1.22873 9.77125 0.333313 8.66667 0.333313C7.56208 0.333313 6.66667 1.22873 6.66667 2.33331C6.66667 2.64165 6.74208 2.92998 6.86667 3.19081L2.8575 7.19998C2.59667 7.0754 2.30833 6.99998 2 6.99998C0.895417 6.99998 0 7.8954 0 8.99998C0 10.1046 0.895417 11 2 11C3.10458 11 4 10.1046 4 8.99998C4 8.69165 3.92458 8.40331 3.8 8.14248L7.80917 4.13331C8.07 4.2579 8.35833 4.33331 8.66667 4.33331C9.05375 4.33331 9.41167 4.21831 9.71792 4.0279L13.4513 7.01456C13.38 7.21998 13.3333 7.43706 13.3333 7.66665C13.3333 8.77123 14.2288 9.66665 15.3333 9.66665C16.4379 9.66665 17.3333 8.77123 17.3333 7.66665C17.3333 7.43706 17.2867 7.21998 17.2154 7.01456L20.9487 4.02831ZM22 1.66665C22.3675 1.66665 22.6667 1.96581 22.6667 2.33331C22.6667 2.70081 22.3675 2.99998 22 2.99998C21.6325 2.99998 21.3333 2.70081 21.3333 2.33331C21.3333 1.96581 21.6325 1.66665 22 1.66665ZM2 9.66665C1.6325 9.66665 1.33333 9.36748 1.33333 8.99998C1.33333 8.63248 1.6325 8.33331 2 8.33331C2.3675 8.33331 2.66667 8.63248 2.66667 8.99998C2.66667 9.36748 2.3675 9.66665 2 9.66665ZM8.66667 2.99998C8.29917 2.99998 8 2.70081 8 2.33331C8 1.96581 8.29917 1.66665 8.66667 1.66665C9.03417 1.66665 9.33333 1.96581 9.33333 2.33331C9.33333 2.70081 9.03417 2.99998 8.66667 2.99998ZM15.3333 8.33331C14.9658 8.33331 14.6667 8.03415 14.6667 7.66665C14.6667 7.29915 14.9658 6.99998 15.3333 6.99998C15.7008 6.99998 16 7.29915 16 7.66665C16 8.03415 15.7008 8.33331 15.3333 8.33331ZM10 8.33331H7.33333C6.965 8.33331 6.66667 8.63165 6.66667 8.99998V21C6.66667 21.3683 6.965 21.6666 7.33333 21.6666H10C10.3683 21.6666 10.6667 21.3683 10.6667 21V8.99998C10.6667 8.63165 10.3683 8.33331 10 8.33331ZM9.33333 20.3333H8V9.66665H9.33333V20.3333ZM16.6667 13.6666H14C13.6317 13.6666 13.3333 13.965 13.3333 14.3333V21C13.3333 21.3683 13.6317 21.6666 14 21.6666H16.6667C17.035 21.6666 17.3333 21.3683 17.3333 21V14.3333C17.3333 13.965 17.035 13.6666 16.6667 13.6666ZM16 20.3333H14.6667V15H16V20.3333Z" fill="white"/>
</svg>
