<svg width="24" height="22" viewBox="0 0 24 22" fill="none" xmlns="http://www.w3.org/2000/svg">
<path d="M23.3333 6.66667C23.25 6.66667 23.1667 6.68333 23.0833 6.71667L16 9.33333L15.5708 9.18333C16.5417 7.72917 17.3333 6.21667 17.3333 5.125C17.3333 2.29167 14.9458 0 12 0C9.05417 0 6.66667 2.29583 6.66667 5.125C6.66667 5.61667 6.83333 6.2 7.1 6.81667L0.8375 9C0.333333 9.2 0 9.69167 0 10.2375V20.6667C0 21.05 0.3125 21.3333 0.666667 21.3333C0.75 21.3333 0.833333 21.3167 0.916667 21.2833L8 18.6667L15.1667 21.1958C15.7083 21.375 16.2917 21.3792 16.8333 21.2042L23.1625 19C23.6708 18.7958 24 18.3083 24 17.7625V7.33333C24 6.95 23.6875 6.66667 23.3333 6.66667ZM7.33333 17.4917L1.32917 19.7083L1.275 10.2542L7.33333 8.15V17.4917ZM12 1.33333C14.2042 1.33333 16 3.03333 16 5.125C16 6.25 14.4125 8.82917 12 11.6583C9.5875 8.82917 8 6.25 8 5.125C8 3.03333 9.79583 1.33333 12 1.33333ZM15.3333 19.8417L8.66667 17.4875V9.53333C9.68333 11.0042 10.8375 12.3667 11.4875 13.1042C11.6208 13.2583 11.8125 13.3333 12 13.3333C12.1875 13.3333 12.375 13.2583 12.5125 13.1042C13.0458 12.5 13.9167 11.475 14.775 10.3167L15.3333 10.5125V19.8417ZM16.6667 19.85V10.5083L22.6708 8.29167L22.725 17.7458L16.6667 19.85ZM13 5.33333C13 4.77917 12.55 4.33333 12 4.33333C11.45 4.33333 11 4.77917 11 5.33333C11 5.88333 11.45 6.33333 12 6.33333C12.55 6.33333 13 5.8875 13 5.33333Z" fill="white"/>
</svg>
