<svg width="24" height="25" viewBox="0 0 24 25" fill="none" xmlns="http://www.w3.org/2000/svg">
<path d="M21.1875 20.9167C21.1875 21.4323 20.7656 21.8542 20.25 21.8542C19.7344 21.8542 19.3125 21.4323 19.3125 20.9167C19.3125 20.401 19.7344 19.9792 20.25 19.9792C20.7656 19.9792 21.1875 20.401 21.1875 20.9167ZM17.25 19.9792C16.7344 19.9792 16.3125 20.401 16.3125 20.9167C16.3125 21.4323 16.7344 21.8542 17.25 21.8542C17.7656 21.8542 18.1875 21.4323 18.1875 20.9167C18.1875 20.401 17.7656 19.9792 17.25 19.9792ZM24 17.7292V22.6042C24 23.7432 23.0766 24.6667 21.9375 24.6667H2.0625C0.923438 24.6667 0 23.7432 0 22.6042V17.7292C0 16.5901 0.923438 15.6667 2.0625 15.6667H6.72187L4.07812 13.0229C2.89687 11.8417 3.73594 9.82134 5.40469 9.82134H7.875V2.54166C7.875 1.50572 8.71406 0.666656 9.75 0.666656H14.25C15.2859 0.666656 16.125 1.50572 16.125 2.54166V9.82134H18.5953C20.2641 9.82134 21.0984 11.8417 19.9219 13.0229L17.2781 15.6667H21.9375C23.0766 15.6667 24 16.5901 24 17.7292ZM11.7328 18.5588C11.8781 18.7042 12.1172 18.7042 12.2625 18.5588L18.8578 11.9635C19.0922 11.7292 18.9281 11.3213 18.5906 11.3213H14.625V2.54166C14.625 2.33541 14.4563 2.16666 14.25 2.16666H9.75C9.54375 2.16666 9.375 2.33541 9.375 2.54166V11.3213H5.40469C5.07188 11.3213 4.90312 11.7245 5.1375 11.9635L11.7328 18.5588ZM22.5 17.7292C22.5 17.4198 22.2469 17.1667 21.9375 17.1667H15.7781L13.3266 19.6182C12.5953 20.3495 11.4047 20.3495 10.6734 19.6182L8.22187 17.1667H2.0625C1.75312 17.1667 1.5 17.4198 1.5 17.7292V22.6042C1.5 22.9135 1.75312 23.1667 2.0625 23.1667H21.9375C22.2469 23.1667 22.5 22.9135 22.5 22.6042V17.7292Z" fill="white"/>
</svg>
